<svg xmlns="http://www.w3.org/2000/svg" viewBox="0 0 70 70" fill="#ffffff">
  <path
    fill-rule="evenodd"
    d="M 10 48 C 0 41 11 27 19 35 C 23 39 17 47 13 43 C 10 40 14 36 16 39 M 25 30 C 22 33 18 29 21 26 C 26 21 34 29 29 34 Q 23 39 19 35 C 7 25 23 10 32 19 C 37 24 35 24 37 31 C 40 42 56 37 51 28 C 46 21 39 28 42 32 C 44 35 48 33 46 30 M 37 31 C 33 17 54 12 59 24 C 61 29 61 32 59 36 M 57 41 C 59 39 61 42 59 44 C 56 46 53 42 54 39 Q 55 36 59 36 C 65 36 65 43 63 47 C 61 50 60 50 55 50 H 25 C 16 50 13 50 10 48"
    stroke="#000000"
    stroke-width="1"
    stroke-linecap="round"
    stroke-linejoin="round"
  />
</svg>
