<svg xmlns="http://www.w3.org/2000/svg" viewBox="0 0 61 36" fill="#ffffff">
  <path
    fill-rule="evenodd"
    d="M 5 33 C -5 26 6 12 14 20 C 18 24 12 32 8 28 C 5 25 9 21 11 24 M 20 15 C 17 18 13 14 16 11 C 21 6 29 14 24 19 Q 18 24 14 20 C 2 10 18 -5 27 4 C 32 9 30 9 32 16 C 35 27 51 22 46 13 C 41 6 34 13 37 17 C 39 20 43 18 41 15 M 32 16 C 28 2 49 -3 54 9 C 56 14 56 17 54 21 M 52 26 C 54 24 56 27 54 29 C 51 31 48 27 49 24 Q 50 21 54 21 C 60 21 60 28 58 32 C 56 35 55 35 50 35 H 20 C 11 35 8 35 5 33"
    stroke="#000000"
    stroke-width="1"
    stroke-linecap="round"
    stroke-linejoin="round"
  />
</svg>
