<svg xmlns="http://www.w3.org/2000/svg" viewBox="0 0 70 70">
  <path
    d="M 15 31 C 9 28 -1 41 10 49 C 13 51 16 51 25 51 H 55 C 60 51 61 51 64 47 C 66 42 65 36 61 35 C 62 32 62 29 60 24 C 55 11 37 17 36 24 C 30 5 7 20 15 31 Z"
    fill="#000000"
  />

  <path
    fill="#ffffff"
    d="M 10 48 C 0 41 11 27 18 35 C 22 39 18 46 14 43 C 10 40 14 36 16 39 C 17 40 18 39 17 38 C 14 34 8 40 14 44 C 18 47 23 39 19 35 Q 24 39 30 34 C 36 28 26 20 21 25 C 17 28 21 35 26 30 C 27 29 26 29 25 30 C 22 33 18 29 21 26 C 26 21 35 28 29 34 Q 23 38 19 34 C 7 25 23 10 32 19 C 37 24 34 24 37 31 C 40 42 56 37 51 28 C 46 21 39 27 42 32 C 44 35 48 33 46 30 C 46 29 44 29 45 30 C 46 32 45 34 43 32 C 40 27 46 23 50 28 C 55 36 41 40 38 31 C 33 17 54 12 59 24 C 61 29 61 32 60 35 Q 54 35 53 39 C 52 42 56 48 60 44 C 62 42 59 38 56 41 C 55 42 56 42 57 41 C 59 40 61 42 59 44 C 56 46 53 42 54 39 Q 55 36 59 36 C 65 36 65 43 63 47 C 61 50 60 50 55 50 H 25 C 16 50 13 50 10 48 Z"
  />
</svg>
